<?xml version="1.0" encoding="UTF-8" standalone="no"?>
<!-- Created with Inkscape (http://www.inkscape.org/) -->

<svg
   width="92.049011mm"
   height="92.049011mm"
   viewBox="0 0 92.049011 92.049011"
   version="1.1"
   id="svg5"
   inkscape:version="1.1.1 (3bf5ae0d25, 2021-09-20)"
   sodipodi:docname="elm-github-action.svg"
   xmlns:inkscape="http://www.inkscape.org/namespaces/inkscape"
   xmlns:sodipodi="http://sodipodi.sourceforge.net/DTD/sodipodi-0.dtd"
   xmlns:xlink="http://www.w3.org/1999/xlink"
   xmlns="http://www.w3.org/2000/svg"
   xmlns:svg="http://www.w3.org/2000/svg">
  <sodipodi:namedview
     id="namedview7"
     pagecolor="#ffffff"
     bordercolor="#666666"
     borderopacity="1.0"
     inkscape:pageshadow="2"
     inkscape:pageopacity="0.0"
     inkscape:pagecheckerboard="0"
     inkscape:document-units="mm"
     showgrid="false"
     fit-margin-top="0"
     fit-margin-left="0"
     fit-margin-right="0"
     fit-margin-bottom="0"
     inkscape:zoom="0.96051544"
     inkscape:cx="60.9048"
     inkscape:cy="45.808738"
     inkscape:window-width="1920"
     inkscape:window-height="1131"
     inkscape:window-x="0"
     inkscape:window-y="32"
     inkscape:window-maximized="1"
     inkscape:current-layer="layer1" />
  <defs
     id="defs2" />
  <g
     inkscape:label="Layer 1"
     inkscape:groupmode="layer"
     id="layer1"
     transform="translate(-49.208827,-103.72102)">
    <g
       style="fill:#ffffff;fill-rule:evenodd;stroke:#000000;stroke-linecap:round;stroke-linejoin:round"
       id="g834"
       transform="matrix(1.4382658,0,0,1.4382658,49.208827,103.72102)">
      <use
         xlink:href="#A"
         x="0.5"
         y="0.5"
         id="use932"
         width="100%"
         height="100%" />
      <symbol
         id="A"
         overflow="visible"
         transform="translate(-0.5,-0.5)">
        <path
           d="M 32,30.245 45.83,16.415 H 18.17 Z M 1.755,0 15.685,13.93 H 45.97 L 32.037,0 Z M 48.895,16.86 63.967,31.93 48.827,47.07 33.755,32 Z M 64,28.452 V 0 H 35.548 Z M 30.244,32 0,1.756 v 60.5 z M 50.584,48.828 64,62.245 V 35.4 Z M 32,33.756 1.756,64 h 60.5 z"
           stroke="none"
           fill="#34495e"
           fill-rule="nonzero"
           id="path934" />
      </symbol>
    </g>
    <g
       style="fill:none"
       id="g845"
       transform="matrix(0.03243244,0,0,0.03243244,78.668738,161.99179)">
      <path
         style="fill:#ffffff;stroke:none;stroke-width:1.45593;stop-color:#000000"
         d="m 340.00238,734.27364 c -2.3344,-0.73921 -6.95053,-2.74378 -9.40432,-4.08386 -18.26008,-9.97232 -29.94971,-27.14544 -32.72714,-48.07914 -0.12347,-0.93061 -0.22127,-4.26733 -0.21734,-7.41494 0.0217,-17.34489 6.58642,-32.60529 19.28346,-44.82621 9.36533,-9.01414 21.03758,-14.77556 34.09733,-16.83042 3.7463,-0.58946 14.3728,-0.58586 18.08523,0.006 17.83478,2.84392 32.95956,12.41015 42.89931,27.13326 9.25039,13.70201 12.69127,31.10972 9.37038,47.40562 -3.86958,18.98834 -16.94131,35.68248 -34.38016,43.90754 -6.99209,3.29783 -8.84208,3.65045 -10.35753,1.97419 -0.60718,-0.6716 -0.66112,-1.61051 -0.67867,-11.81329 -0.0179,-10.40308 -0.0676,-11.22998 -0.80996,-13.46558 -0.43498,-1.31004 -1.26952,-3.04262 -1.85452,-3.85018 l -1.06363,-1.46831 3.50125,-0.62776 c 7.03201,-1.26081 12.2788,-3.56704 16.11743,-7.08445 5.3823,-4.9319 7.99235,-11.46589 8.44021,-21.12922 0.3242,-6.99509 -1.26408,-12.768 -4.76589,-17.32251 -1.35534,-1.76278 -1.36406,-1.79541 -0.96622,-3.61705 1.01218,-4.63462 0.83738,-8.63493 -0.57423,-13.14149 l -0.59481,-1.89895 h -2.11559 c -3.25523,0 -8.49688,2.04382 -13.59743,5.30188 -1.05572,0.67436 -2.07155,1.13213 -2.25739,1.01727 -0.96703,-0.59765 -8.01705,-1.6399 -12.46153,-1.84226 -5.56751,-0.2535 -10.94488,0.18967 -15.51441,1.27858 l -2.85475,0.68029 -1.84741,-1.18 c -4.90458,-3.1327 -10.46657,-5.25576 -13.76907,-5.25576 h -1.89859 l -0.84343,2.80322 c -0.99602,3.31035 -1.16783,8.42294 -0.39934,11.88314 l 0.49029,2.20754 -1.35927,1.77121 c -4.25056,5.53876 -5.72724,13.09932 -4.33743,22.20752 1.05866,6.938 3.03222,11.136 7.24806,15.41753 2.43107,2.46895 3.44293,3.20178 6.32983,4.58431 3.63569,1.74112 7.15646,2.81725 11.51205,3.51866 l 2.65028,0.42679 -0.73043,0.77751 c -0.92794,0.98775 -2.45745,4.34782 -2.77389,6.09378 -0.22121,1.22053 -0.40835,1.39726 -2.10464,1.98751 -1.25278,0.43592 -2.92674,0.64847 -5.11717,0.64972 -3.05824,0.002 -3.39769,-0.0766 -5.60643,-1.29461 -1.56455,-0.86275 -2.83509,-1.92101 -3.79789,-3.16334 -0.79575,-1.02677 -2.10386,-2.7221 -2.9069,-3.76739 -2.63569,-3.43078 -6.75036,-5.3696 -9.93362,-4.6807 -1.01245,0.21911 -1.28836,0.46514 -1.37779,1.22858 -0.0927,0.79109 0.22247,1.20157 1.83977,2.39634 2.92924,2.16395 4.72879,4.42475 6.91521,8.68766 1.11581,2.17552 2.5764,4.43252 3.35745,5.18816 3.03688,2.93809 8.65657,4.31027 14.6002,3.565 1.672,-0.20965 3.16634,-0.38118 3.32077,-0.38118 0.15442,0 0.27559,2.80773 0.26926,6.23941 -0.0124,6.71932 -0.12161,7.16132 -1.94047,7.85285 -1.11186,0.42273 -1.13907,0.42304 -2.38848,0.0274 z"
         id="path921"
         transform="matrix(8.1579842,0,0,8.1579842,-2425.6189,-4994.7457)" />
    </g>
  </g>
</svg>
